<svg
    viewBox="0 0 17 16"
    xmlns="http://www.w3.org/2000/svg"
    width="16"
    height="16"
    fill="currentColor"
>
<path
    fillRule="evenodd"
    clipRule="evenodd"
    d="M8.06478 0C3.61133 0 0 3.6722 0 8.20248C0 11.8266 2.31081 14.9013 5.51518 15.9859C5.91823 16.0618 6.06622 15.808 6.06622 15.5913C6.06622 15.3957 6.05875 14.7496 6.05528 14.0642C3.81164 14.5604 3.3382 13.0963 3.3382 13.0963C2.97134 12.1483 2.44275 11.8961 2.44275 11.8961C1.71103 11.387 2.49791 11.3975 2.49791 11.3975C3.30775 11.4552 3.73417 12.2428 3.73417 12.2428C4.45347 13.4968 5.62083 13.1343 6.08103 12.9247C6.15342 12.3947 6.36245 12.0325 6.59305 11.8278C4.80178 11.6204 2.91872 10.9171 2.91872 7.77405C2.91872 6.87851 3.23377 6.14679 3.74966 5.57235C3.66593 5.36561 3.38987 4.53148 3.8278 3.40163C3.8278 3.40163 4.50501 3.18118 6.04619 4.24243C6.68951 4.0607 7.37942 3.96953 8.06478 3.96644C8.75018 3.96953 9.44062 4.0607 10.0851 4.24243C11.6244 3.18118 12.3007 3.40163 12.3007 3.40163C12.7397 4.53148 12.4635 5.36561 12.3798 5.57235C12.8969 6.14679 13.2098 6.87851 13.2098 7.77405C13.2098 10.9245 11.3231 11.6182 9.52728 11.8213C9.81657 12.0758 10.0743 12.575 10.0743 13.3403C10.0743 14.4377 10.065 15.321 10.065 15.5913C10.065 15.8096 10.2101 16.0653 10.6189 15.9848C13.8216 14.899 16.1294 11.8254 16.1294 8.20248C16.1294 3.6722 12.5187 0 8.06478 0Z"
></path>
</svg>