<?xml version="1.0" standalone="no"?>
<!DOCTYPE svg PUBLIC "-//W3C//DTD SVG 20010904//EN"
 "http://www.w3.org/TR/2001/REC-SVG-20010904/DTD/svg10.dtd">
<svg version="1.0" xmlns="http://www.w3.org/2000/svg"
 width="400.000000pt" height="400.000000pt" viewBox="0 0 400.000000 400.000000"
 preserveAspectRatio="xMidYMid meet">
<metadata>
Created by potrace 1.14, written by Peter Selinger 2001-2017
</metadata>
<g transform="translate(0.000000,400.000000) scale(0.100000,-0.100000)"
fill="#000000" stroke="none">
<path d="M795 3959 c7 -49 47 -138 82 -180 30 -35 117 -93 176 -117 147 -59
341 32 419 197 17 36 32 67 33 69 2 2 23 -3 48 -12 25 -8 70 -18 100 -21 l55
-6 16 47 c22 64 22 64 -23 64 -30 0 -40 -4 -44 -20 -4 -15 -11 -18 -33 -15
-16 3 -48 8 -72 11 -23 4 -45 11 -48 15 -3 5 -165 9 -359 9 l-355 0 5 -41z"/>
<path d="M2010 3983 c0 -10 43 -60 96 -111 95 -93 95 -94 77 -115 -10 -12 -19
-23 -19 -25 -1 -2 -73 -5 -161 -7 -87 -2 -171 -7 -188 -10 -16 -3 -41 -8 -55
-10 -58 -12 -76 -15 -101 -20 -14 -3 -45 -12 -69 -20 -23 -8 -80 -19 -126 -25
-146 -16 -169 -27 -220 -105 -18 -27 -175 -145 -193 -145 -6 0 -34 12 -61 26
l-50 26 -62 -57 c-35 -31 -110 -88 -168 -127 -58 -38 -104 -75 -102 -81 2 -6
19 -32 38 -58 37 -51 34 -63 -20 -73 -37 -7 -39 -9 -43 -53 -1 -20 -16 -75
-32 -122 -16 -47 -34 -115 -40 -151 -9 -62 -6 -259 4 -289 3 -7 0 -21 -7 -29
-7 -9 -8 -13 -2 -9 7 4 16 -9 22 -32 7 -21 23 -59 37 -85 23 -43 23 -47 7 -53
-32 -12 -72 -44 -72 -59 0 -11 13 -6 47 17 l47 32 25 -34 c14 -18 42 -52 62
-74 34 -39 35 -41 20 -70 -30 -59 -24 -229 11 -314 6 -14 12 -28 12 -31 1 -3
9 -22 19 -43 36 -75 132 -146 199 -147 21 0 28 -6 33 -30 7 -31 4 -278 -3
-293 -2 -4 -10 -3 -17 3 -11 9 -17 6 -30 -14 -25 -37 -34 -90 -35 -188 0 -136
31 -247 79 -280 11 -8 30 -41 42 -74 40 -108 145 -185 315 -229 82 -21 85 -23
114 -69 49 -77 90 -104 164 -111 31 -3 29 -19 -4 -48 -39 -35 -48 -72 -26
-110 13 -23 14 -33 5 -43 -10 -12 71 -14 544 -14 l556 1 16 21 c8 13 15 30 15
39 0 9 8 27 19 40 19 25 25 55 40 195 7 69 14 88 45 133 20 30 36 59 36 67 0
10 8 9 33 -6 40 -25 99 -26 138 -3 44 26 77 102 90 208 15 121 16 114 -19 247
-45 171 -117 340 -199 472 -18 27 -22 41 -14 49 6 6 11 8 11 5 0 -8 124 33
168 56 34 18 72 64 91 112 7 18 32 46 57 63 24 18 44 36 44 40 0 5 27 35 61
67 33 33 66 70 74 84 11 22 25 105 42 250 3 25 9 63 15 85 34 143 39 171 54
334 2 24 0 49 -5 55 -5 6 -14 38 -20 71 -18 97 -19 101 -35 146 -57 163 -132
329 -179 398 l-23 34 27 50 c25 45 27 60 28 167 l2 117 -103 -23 c-57 -13
-111 -24 -120 -24 -24 0 -39 32 -44 93 -2 28 -8 55 -13 60 -11 11 -236 -10
-261 -24 -8 -4 39 -7 108 -5 67 2 122 1 122 -3 5 -83 36 -155 67 -159 13 -2
59 6 103 17 117 31 110 35 110 -66 0 -73 -5 -97 -25 -142 l-26 -54 -37 34
c-20 19 -38 34 -40 35 -9 4 12 33 27 37 10 2 23 18 28 34 9 24 7 33 -11 55
l-21 26 -79 -20 -78 -20 -57 29 c-31 16 -92 47 -136 70 -44 23 -138 60 -210
84 -71 23 -134 46 -138 49 -5 4 6 21 22 38 17 17 31 35 31 39 0 5 -30 2 -67
-7 -38 -10 -81 -20 -98 -24 l-30 -7 33 33 c17 19 32 37 32 41 0 3 -28 25 -62
48 -35 23 -95 68 -135 100 -66 55 -75 59 -122 59 -42 0 -51 -3 -51 -17z m1154
-542 c16 -18 13 -29 -9 -26 -104 15 -125 27 -65 38 48 8 57 7 74 -12z m-2168
-108 c-29 -28 -42 -33 -84 -33 -43 0 -57 -6 -118 -51 -113 -84 -110 -80 -74
-99 l31 -16 -29 -21 -28 -21 -24 44 c-12 25 -21 46 -19 47 2 2 29 18 59 37 62
39 123 86 189 146 l45 42 43 -21 44 -21 -35 -33z m2134 27 c0 -5 -5 -10 -11
-10 -5 0 -7 5 -4 10 3 6 8 10 11 10 2 0 4 -4 4 -10z m-2206 -86 c18 -7 22 -24
5 -24 -6 0 -27 -13 -46 -30 -18 -16 -39 -30 -45 -30 -6 0 -19 -7 -28 -15 -22
-20 -80 -28 -80 -12 0 7 8 17 18 24 9 6 43 30 76 52 60 42 72 46 100 35z
m-294 -258 c0 -2 -7 -7 -16 -10 -8 -3 -12 -2 -9 4 6 10 25 14 25 6z m2750
-188 c24 -113 32 -438 11 -438 -3 0 -16 37 -28 83 -12 45 -27 101 -34 125 -9
32 -9 49 -1 65 18 35 30 102 28 162 0 30 2 55 6 55 3 0 11 -24 18 -52z m-1839
-2243 c53 -8 63 -16 47 -37 -14 -17 -106 -32 -125 -20 -13 8 -25 60 -17 73 2
5 15 4 28 -1 13 -5 44 -12 67 -15z"/>
<path d="M2712 3653 c62 -47 105 -62 149 -50 47 11 47 11 86 -65 17 -32 33
-55 37 -51 3 3 6 -2 7 -13 0 -11 3 -14 6 -6 8 19 -78 162 -97 162 -9 0 -31 -5
-47 -11 -25 -8 -39 -6 -77 12 -25 11 -46 27 -46 34 0 7 -11 13 -25 13 -25 0
-25 -1 7 -25z"/>
<path d="M504 2348 c-4 -15 -1 -25 12 -35 23 -17 31 -8 12 14 -9 10 -13 24
-11 31 3 6 2 12 0 12 -3 0 -9 -10 -13 -22z"/>
</g>
</svg>
